<?xml version="1.0" encoding="iso-8859-1"?>
<!-- Uploaded to: SVG Repo, www.svgrepo.com, Generator: SVG Repo Mixer Tools -->
<svg version="1.1" id="Layer_1" xmlns="http://www.w3.org/2000/svg" xmlns:xlink="http://www.w3.org/1999/xlink" 
	 viewBox="0 0 511.999 511.999" xml:space="preserve">
<rect x="59.323" y="8.017" style="fill:#999999;" width="85.511" height="145.369"/>
<rect x="59.323" y="8.017" style="fill:#808080;" width="29.929" height="145.369"/>
<rect x="42.221" y="8.017" style="fill:#E5E5E5;" width="119.716" height="34.205"/>
<polygon style="fill:#6DDAE1;" points="55.048,503.982 55.048,196.142 8.017,196.142 255.999,8.017 503.982,196.142 
	456.951,196.142 456.951,503.982 "/>
<polygon style="fill:#4FC4D3;" points="8.017,196.142 55.048,196.142 55.048,503.982 89.787,503.982 89.787,134.11 "/>
<path style="fill:#FFD791;" d="M371.44,341.511H140.559V228.209c0-17.71,14.356-32.067,32.067-32.067h166.747
	c17.71,0,32.067,14.356,32.067,32.067V341.511z"/>
<path style="fill:#808080;" d="M183.315,221.795c-8.855,0-17.102,7.179-17.102,16.033v33.136l49.169-49.169H183.315z"/>
<polygon style="fill:#CCCCCC;" points="263.839,221.795 215.382,221.795 166.213,270.964 166.213,319.421 "/>
<path style="fill:#808080;" d="M328.684,221.795h-64.846l-97.625,97.626v22.09h64.133l112.478-112.478
	C339.643,224.676,334.289,221.795,328.684,221.795z"/>
<path style="fill:#CCCCCC;" d="M342.824,229.034L230.346,341.511h57.007l58.433-58.433v-45.249
	C345.786,234.579,344.668,231.559,342.824,229.034z"/>
<polygon style="fill:#808080;" points="345.786,341.511 345.786,283.079 287.354,341.511 "/>
<path style="fill:#FFD791;" d="M388.542,418.471H123.457v-78.029c0-8.855,8.248-16.033,17.102-16.033H371.44
	c8.855,0,17.102,7.179,17.102,16.033V418.471z"/>
<path style="fill:#F8BE73;" d="M140.559,324.409c-8.855,0-17.102,7.179-17.102,16.033v78.029h50.951v-94.062H140.559z"/>
<g>
	<circle style="fill:#E5E5E5;" cx="166.213" cy="367.164" r="17.102"/>
	<circle style="fill:#E5E5E5;" cx="345.786" cy="367.164" r="17.102"/>
</g>
<g>
	<rect x="140.559" y="418.471" style="fill:#808080;" width="51.307" height="51.307"/>
	<rect x="320.133" y="418.471" style="fill:#808080;" width="51.307" height="51.307"/>
</g>
<g>
	<rect x="140.559" y="418.471" style="fill:#666666;" width="51.307" height="34.205"/>
	<rect x="320.133" y="418.471" style="fill:#666666;" width="51.307" height="34.205"/>
</g>
<rect x="106.355" y="409.92" style="fill:#CCCCCC;" width="299.29" height="25.653"/>
<rect x="260.275" y="409.92" style="fill:#FAFAFA;" width="34.205" height="25.653"/>
<rect x="106.355" y="409.92" style="fill:#999999;" width="51.66" height="25.653"/>
<path d="M508.827,189.755l-81.231-61.624c-3.527-2.675-8.554-1.986-11.232,1.541c-2.675,3.527-1.986,8.555,1.541,11.232
	l62.245,47.22h-23.199c-4.427,0-8.017,3.589-8.017,8.017v299.824H63.065v-51.841c0-4.427-3.589-8.017-8.017-8.017
	s-8.017,3.589-8.017,8.017v59.858c0,4.427,3.589,8.017,8.017,8.017h401.903c4.427,0,8.017-3.589,8.017-8.017V204.158h39.015
	c3.443,0,6.501-2.198,7.598-5.461C512.679,195.435,511.57,191.835,508.827,189.755z"/>
<path d="M47.031,401.369c0,4.427,3.589,8.017,8.017,8.017s8.017-3.589,8.017-8.017V196.142c0-4.427-3.589-8.017-8.017-8.017H31.849
	L255.999,18.079l127.695,96.871c3.526,2.674,8.555,1.987,11.232-1.541c2.675-3.527,1.986-8.555-1.541-11.232L260.845,1.63
	c-2.865-2.173-6.826-2.173-9.689,0l-98.304,74.575V50.238h9.086c4.427,0,8.017-3.589,8.017-8.017V8.017
	c0-4.427-3.589-8.017-8.017-8.017H42.221c-4.427,0-8.017,3.589-8.017,8.017v34.205c0,4.427,3.589,8.017,8.017,8.017h9.086v103
	L3.172,189.755c-2.743,2.08-3.851,5.68-2.753,8.942c1.098,3.263,4.156,5.461,7.598,5.461h39.015V401.369z M50.238,16.034H153.92
	v18.171H50.238V16.034z M67.34,50.238h69.478v38.129L67.34,141.075V50.238z"/>
<path d="M379.456,317.708v-89.499c0-22.103-17.981-40.083-40.083-40.083H172.626c-22.103,0-40.083,17.981-40.083,40.083v89.499
	c-9.825,3.288-17.102,12.368-17.102,22.734v61.461h-9.086c-4.427,0-8.017,3.589-8.017,8.017v25.653c0,4.427,3.589,8.017,8.017,8.017
	h26.188v26.188c0,4.427,3.589,8.017,8.017,8.017h51.307c4.427,0,8.017-3.589,8.017-8.017V443.59h112.234v26.188
	c0,4.427,3.589,8.017,8.017,8.017h51.307c4.427,0,8.017-3.589,8.017-8.017V443.59h26.188c4.427,0,8.017-3.589,8.017-8.017V409.92
	c0-4.427-3.589-8.017-8.017-8.017h-9.086v-61.461C396.559,330.076,389.283,320.996,379.456,317.708z M148.576,228.209
	c0-13.262,10.788-24.05,24.05-24.05h166.747c13.262,0,24.05,10.788,24.05,24.05v88.184h-9.62v-78.564
	c0-13.036-11.503-24.05-25.119-24.05H183.315c-13.616,0-25.119,11.014-25.119,24.05v78.564h-9.62V228.209z M337.77,316.392h-163.54
	v-78.564c0-4.121,4.416-8.017,9.086-8.017h145.369c4.67,0,9.086,3.896,9.086,8.017V316.392z M131.474,340.442
	c0-4.121,4.416-8.017,9.086-8.017H371.44c4.67,0,9.086,3.896,9.086,8.017v61.461H131.474V340.442z M183.849,461.761h-35.273V443.59
	h35.273V461.761z M363.423,461.761H328.15V443.59h35.273V461.761z M397.627,427.557H114.371v-9.62h9.086h265.085h9.086V427.557z"/>
<path d="M166.213,342.045c-13.851,0-25.119,11.268-25.119,25.119c0,13.851,11.268,25.119,25.119,25.119
	c13.851,0,25.119-11.268,25.119-25.119C191.331,353.314,180.063,342.045,166.213,342.045z M166.213,376.25
	c-5.01,0-9.086-4.076-9.086-9.086c0-5.01,4.076-9.086,9.086-9.086s9.086,4.076,9.086,9.086
	C175.298,372.174,171.222,376.25,166.213,376.25z"/>
<path d="M345.786,342.045c-13.851,0-25.119,11.268-25.119,25.119c0,13.851,11.268,25.119,25.119,25.119s25.119-11.268,25.119-25.119
	C370.905,353.314,359.637,342.045,345.786,342.045z M345.786,376.25c-5.01,0-9.086-4.076-9.086-9.086
	c0-5.01,4.076-9.086,9.086-9.086c5.01,0,9.086,4.076,9.086,9.086C354.872,372.174,350.796,376.25,345.786,376.25z"/>
<path d="M294.479,342.045h-76.96c-4.427,0-8.017,3.589-8.017,8.017s3.589,8.017,8.017,8.017h76.96c4.427,0,8.017-3.589,8.017-8.017
	S298.907,342.045,294.479,342.045z"/>
<path d="M294.479,376.25h-76.96c-4.427,0-8.017,3.589-8.017,8.017c0,4.427,3.589,8.017,8.017,8.017h76.96
	c4.427,0,8.017-3.589,8.017-8.017C302.496,379.839,298.907,376.25,294.479,376.25z"/>
</svg>